<?xml version="1.0" encoding="iso-8859-1"?>
<!-- Generator: Adobe Illustrator 19.0.0, SVG Export Plug-In . SVG Version: 6.00 Build 0)  -->
<svg version="1.1" id="Layer_1" xmlns="http://www.w3.org/2000/svg" xmlns:xlink="http://www.w3.org/1999/xlink" x="0px" y="0px"
	 viewBox="0 0 512 512" style="enable-background:new 0 0 512 512;" xml:space="preserve">
<path style="fill:#DAEFBB;" d="M347.621,503.621H164.379l80.168-161.768h22.905L347.621,503.621z"/>
<path style="fill:#6D6D6D;" d="M331.453,116.168H180.547V40.715h150.905V116.168z"/>
<path style="fill:#444444;" d="M331.453,116.168h-43.116V40.715h43.116V116.168z"/>
<path style="fill:#BFBFBF;" d="M353.01,126.947v64.674c0,11.906-9.651,21.558-21.558,21.558v21.558H180.547v-21.558
	c-11.906,0-21.558-9.651-21.558-21.558v-64.674c0-11.906,9.651-21.558,21.558-21.558h150.905
	C343.359,105.389,353.01,115.042,353.01,126.947z"/>
<path style="fill:#E2E2E2;" d="M234.442,213.178h-43.116V105.389h43.116V213.178z"/>
<path style="fill:#999999;" d="M374.568,19.157v21.558c0,5.953-4.826,10.779-10.779,10.779H148.211
	c-5.953,0-10.779-4.826-10.779-10.779V19.157c0-5.953,4.826-10.779,10.779-10.779h215.579
	C369.743,8.378,374.568,13.204,374.568,19.157z M331.453,105.389h-43.116v107.789h43.116c11.906,0,21.558-9.651,21.558-21.558
	v-64.674C353.01,115.042,343.359,105.389,331.453,105.389z"/>
<path style="fill:#BFBFBF;" d="M288.337,51.494H148.211c-5.953,0-10.779-4.826-10.779-10.779V19.157
	c0-5.953,4.826-10.779,10.779-10.779h140.126V51.494z"/>
<path style="fill:#D9B166;" d="M320.674,234.736v21.558l-49.074,98.149c-2.954,5.909-8.994,9.641-15.599,9.641
	c-6.605,0-12.645-3.733-15.599-9.641l-49.074-98.149v-21.558H320.674z"/>
<path style="fill:#BC8E50;" d="M331.453,213.178v32.337c0,5.953-4.826,10.779-10.779,10.779l-49.074,98.149
	c-2.954,5.909-8.994,9.641-15.599,9.641c-6.605,0-12.645-3.733-15.599-9.641l-0.569-1.138l48.505-97.011h-97.011
	c-5.953,0-10.779-4.826-10.779-10.779v-32.337L331.453,213.178L331.453,213.178z"/>
<path style="fill:#996633;" d="M331.453,213.178v32.337c0,5.953-4.826,10.779-10.779,10.779h-32.337v-43.116H331.453z"/>
<path d="M231.747,503.916c0,4.466-3.618,8.084-8.084,8.084H105.095c-4.466,0-8.084-3.618-8.084-8.084s3.618-8.084,8.084-8.084
	h118.568C228.129,495.832,231.747,499.45,231.747,503.916z M256,463.495c-4.466,0-8.084,3.618-8.084,8.084v32.337
	c0,4.466,3.618,8.084,8.084,8.084s8.084-3.618,8.084-8.084v-32.337C264.084,467.113,260.466,463.495,256,463.495z M256,388.042
	c-4.466,0-8.084,3.618-8.084,8.084v43.116c0,4.466,3.618,8.084,8.084,8.084s8.084-3.618,8.084-8.084v-43.116
	C264.084,391.661,260.466,388.042,256,388.042z M326.062,263.299l-47.232,94.465c-4.35,8.703-13.099,14.11-22.83,14.11
	s-18.479-5.407-22.83-14.111l-47.232-94.463c-7.785-2.324-13.475-9.549-13.475-18.078v-25.373
	c-12.428-3.527-21.558-14.978-21.558-28.522v-64.674c0-13.543,9.13-24.994,21.558-28.522V59.284h-24.253
	c-10.401,0-18.863-8.463-18.863-18.863V18.863C129.347,8.463,137.81,0,148.211,0h140.126c4.466,0,8.084,3.618,8.084,8.084
	s-3.618,8.084-8.084,8.084H148.211c-1.486,0-2.695,1.208-2.695,2.695v21.558c0,1.486,1.208,2.695,2.695,2.695h32.337
	c4.466,0,8.084,3.618,8.084,8.084v45.811h24.253c4.466,0,8.084,3.618,8.084,8.084c0,4.466-3.618,8.084-8.084,8.084h-32.337
	c-7.43,0-13.474,6.044-13.474,13.474v64.674c0,7.43,6.044,13.474,13.474,13.474h32.337c4.466,0,8.084,3.618,8.084,8.084
	s-3.618,8.084-8.084,8.084h-24.253v24.253c0,1.486,1.208,2.695,2.695,2.695h129.347c1.486,0,2.695-1.208,2.695-2.695v-24.253
	h-78.147c-4.466,0-8.084-3.618-8.084-8.084s3.618-8.084,8.084-8.084h86.232c7.43,0,13.474-6.044,13.474-13.474v-64.674
	c0-7.43-6.044-13.474-13.474-13.474h-86.232c-4.466,0-8.084-3.618-8.084-8.084c0-4.466,3.618-8.084,8.084-8.084h78.147V59.284
	H212.884c-4.466,0-8.084-3.618-8.084-8.084s3.618-8.084,8.084-8.084h150.905c1.486,0,2.695-1.208,2.695-2.695V18.863
	c0-1.486-1.208-2.695-2.695-2.695h-43.116c-4.466,0-8.084-3.618-8.084-8.084S316.208,0,320.674,0h43.116
	c10.401,0,18.863,8.463,18.863,18.863v21.558c0,10.401-8.463,18.863-18.863,18.863h-24.253V98.13
	c12.428,3.527,21.558,14.978,21.558,28.522v64.674c0,13.543-9.13,24.994-21.558,28.522v25.373
	C339.537,253.75,333.847,260.976,326.062,263.299z M307.592,264.084H204.407l43.225,86.448c1.594,3.191,4.802,5.173,8.369,5.173
	c3.567,0,6.773-1.982,8.369-5.172L307.592,264.084z M406.905,495.832H288.337c-4.466,0-8.084,3.618-8.084,8.084
	s3.618,8.084,8.084,8.084h118.568c4.466,0,8.084-3.618,8.084-8.084S411.371,495.832,406.905,495.832z"/>
<g>
</g>
<g>
</g>
<g>
</g>
<g>
</g>
<g>
</g>
<g>
</g>
<g>
</g>
<g>
</g>
<g>
</g>
<g>
</g>
<g>
</g>
<g>
</g>
<g>
</g>
<g>
</g>
<g>
</g>
</svg>
