<?xml version="1.0" encoding="utf-8"?>
<svg version="1.1" id="Layer_1"
xmlns="http://www.w3.org/2000/svg"
xmlns:xlink="http://www.w3.org/1999/xlink"
width="550px" height="400px"
xml:space="preserve">
<filter id="filter45" x="-0.549524" y="-0.549524" width="2.29664" height="2.2996" >
<feComponentTransfer in="SourceGraphic">
	<feFuncR type="linear" slope="0"/>
	<feFuncG type="linear" slope="0"/>
	<feFuncB type="linear" slope="0"/>
</feComponentTransfer>
<feGaussianBlur stdDeviation="2 2" />
<feOffset result="37" dx="-3.53558" dy="-3.53549"/>
<feComponentTransfer in="SourceGraphic">
	<feFuncR type="linear" slope="0"/>
	<feFuncG type="linear" slope="0"/>
	<feFuncB type="linear" slope="0"/>
</feComponentTransfer>
<feGaussianBlur stdDeviation="2 2" />
<feOffset result="38" dx="3.53558" dy="3.53549"/>
<feComposite  in="37" in2="38" operator="arithmetic" k2="1" k3="-1"/>
<feComponentTransfer result="39">
	<feFuncR type="linear" Ue="0" intercept="1"/>
	<feFuncG type="linear" Ue="0" intercept="0.717647"/>
	<feFuncB type="linear" Ue="0" intercept="0.298039"/>
	<feFuncA type="linear" xh="0" slope="1"/>
</feComponentTransfer>
<feComposite  in="38" in2="37" operator="arithmetic" k2="1" k3="-1"/>
<feComponentTransfer result="40">
	<feFuncR type="linear" Ue="0" intercept="0.6"/>
	<feFuncG type="linear" Ue="0" intercept="0.356863"/>
	<feFuncB type="linear" Ue="0" intercept="0"/>
	<feFuncA type="linear" xh="0" slope="1"/>
</feComponentTransfer>
<feComposite result="41"  in="39" in2="40" operator="arithmetic" k2="1" k3="1"/>
<feComposite result="42"  in="41" in2="SourceGraphic" operator="atop"/>
<feComponentTransfer in="42">
	<feFuncR type="linear" slope="0"/>
	<feFuncG type="linear" slope="0"/>
	<feFuncB type="linear" slope="0"/>
</feComponentTransfer>
<feGaussianBlur stdDeviation="1 1" />
<feOffset dx="0" dy="0"/>
<feComponentTransfer result="43">
	<feFuncR type="linear" Ue="0" intercept="0.701961"/>
	<feFuncG type="linear" Ue="0" intercept="0.501961"/>
	<feFuncB type="linear" Ue="0" intercept="0.207843"/>
	<feFuncA type="linear" xh="0" slope="1.37891"/>
</feComponentTransfer>
<feComposite result="44"  in="42" in2="43" operator="over"/>
</filter>
<g style="filter:url(#filter45);">
<g id="PathID_27" transform="matrix(2.09931, 0, 0, 2.09931, 270.3, 179.85)" opacity="1">
<path style="fill:#FF9900;fill-opacity:1" d="M48 -38L48 38Q48 41 45 41L-45 41Q-48 41 -48 38L-48 -38Q-48 -41 -45 -41L45 -41Q48 -41 48 -38" />
</g>
<g id="PathID_28" transform="matrix(2.09931, 0, 0, 2.09931, 270.3, 179.85)" opacity="1">
</g>
</g>
<filter id="filter54" x="-0.549524" y="-0.549524" width="2.30231" height="2.40999" >
<feComponentTransfer in="SourceGraphic">
	<feFuncR type="linear" slope="0"/>
	<feFuncG type="linear" slope="0"/>
	<feFuncB type="linear" slope="0"/>
</feComponentTransfer>
<feGaussianBlur stdDeviation="2 2" />
<feOffset result="46" dx="-3.53558" dy="-3.53549"/>
<feComponentTransfer in="SourceGraphic">
	<feFuncR type="linear" slope="0"/>
	<feFuncG type="linear" slope="0"/>
	<feFuncB type="linear" slope="0"/>
</feComponentTransfer>
<feGaussianBlur stdDeviation="2 2" />
<feOffset result="47" dx="3.53558" dy="3.53549"/>
<feComposite  in="46" in2="47" operator="arithmetic" k2="1" k3="-1"/>
<feComponentTransfer result="48">
	<feFuncR type="linear" Ue="0" intercept="1"/>
	<feFuncG type="linear" Ue="0" intercept="1"/>
	<feFuncB type="linear" Ue="0" intercept="1"/>
	<feFuncA type="linear" xh="0" slope="1"/>
</feComponentTransfer>
<feComposite  in="47" in2="46" operator="arithmetic" k2="1" k3="-1"/>
<feComponentTransfer result="49">
	<feFuncR type="linear" Ue="0" intercept="0.6"/>
	<feFuncG type="linear" Ue="0" intercept="0.6"/>
	<feFuncB type="linear" Ue="0" intercept="0.6"/>
	<feFuncA type="linear" xh="0" slope="1"/>
</feComponentTransfer>
<feComposite result="50"  in="48" in2="49" operator="arithmetic" k2="1" k3="1"/>
<feComposite result="51"  in="50" in2="SourceGraphic" operator="atop"/>
<feComponentTransfer in="51">
	<feFuncR type="linear" slope="0"/>
	<feFuncG type="linear" slope="0"/>
	<feFuncB type="linear" slope="0"/>
</feComponentTransfer>
<feGaussianBlur stdDeviation="1 1" />
<feOffset dx="0" dy="0"/>
<feComponentTransfer result="52">
	<feFuncR type="linear" Ue="0" intercept="0.701961"/>
	<feFuncG type="linear" Ue="0" intercept="0.701961"/>
	<feFuncB type="linear" Ue="0" intercept="0.701961"/>
	<feFuncA type="linear" xh="0" slope="1.37891"/>
</feComponentTransfer>
<feComposite result="53"  in="51" in2="52" operator="over"/>
</filter>
<g style="filter:url(#filter54);">
<g id="PathID_29" transform="matrix(0.427487, 0, 0, 0.400508, 196.85, 250)" opacity="1">
<path style="fill:#FFFFFF;fill-opacity:1" d="M27.1 -35.75L27.1 -32L8.35 -32L8.35 -20L26.25 -20L26.25 -16.25L8.35 -16.25L8.35 -3.75L27.5 -3.75L27.5 0L3.75 0L3.75 -35.75L27.1 -35.75" />
</g>
<g id="PathID_30" transform="matrix(0.427487, 0, 0, 0.400508, 196.85, 250)" opacity="1">
</g>
<g id="PathID_31" transform="matrix(0.427487, 0, 0, 0.400508, 212.1, 250)" opacity="1">
<path style="fill:#FFFFFF;fill-opacity:1" d="M6.25 0L0.6 0L14.7 -17.9L0.6 -35.75L6.25 -35.75L17.5 -21.45L14.7 -17.9L17.5 -14.3M20.3 -17.9L17.5 -21.45L28.75 -35.75L34.35 -35.75L20.3 -17.9M20.3 -17.9L34.35 0L28.75 0L17.5 -14.3L6.25 0L20.3 -17.9" />
</g>
<g id="PathID_32" transform="matrix(0.427487, 0, 0, 0.400508, 212.1, 250)" opacity="1">
</g>
<g id="PathID_33" transform="matrix(0.427487, 0, 0, 0.400508, 229.35, 250)" opacity="1">
<path style="fill:#FFFFFF;fill-opacity:1" d="M3.75 0L3.75 -35.75L19 -35.75Q29.2 -35.75 29.2 -27.15Q29.2 -17.5 14.95 -15.2L14 -19.1Q24.25 -20.7 24.25 -26.95Q24.25 -31.9 18.55 -31.9L8.35 -31.9L8.35 0L3.75 0" />
</g>
<g id="PathID_34" transform="matrix(0.427487, 0, 0, 0.400508, 229.35, 250)" opacity="1">
</g>
<g id="PathID_35" transform="matrix(0.427487, 0, 0, 0.400508, 244.8, 250)" opacity="1">
<path style="fill:#FFFFFF;fill-opacity:1" d="M20.45 -3.5Q33.25 -3.5 33.25 -17.95Q33.25 -32.25 20.45 -32.25Q7.35 -32.25 7.35 -17.95Q7.35 -3.5 20.45 -3.5M2.5 -17.8Q2.5 -36 20.45 -36Q38.1 -36 38.1 -17.8Q38.1 0.25 20.45 0.25Q2.5 0.25 2.5 -17.8" />
</g>
<g id="PathID_36" transform="matrix(0.427487, 0, 0, 0.400508, 244.8, 250)" opacity="1">
</g>
<g id="PathID_37" transform="matrix(0.427487, 0, 0, 0.400508, 264.3, 250)" opacity="1">
<path style="fill:#FFFFFF;fill-opacity:1" d="M28.1 -35.75L28.1 -32L8.7 -3.75L27.6 -3.75L27.6 0L3.1 0L3.1 -3.75L23.2 -32L3.6 -32L3.6 -35.75L28.1 -35.75" />
</g>
<g id="PathID_38" transform="matrix(0.427487, 0, 0, 0.400508, 264.3, 250)" opacity="1">
</g>
<g id="PathID_39" transform="matrix(0.427487, 0, 0, 0.400508, 279.85, 250)" opacity="1">
<path style="fill:#FFFFFF;fill-opacity:1" d="M8.35 -35.75L8.35 0L3.75 0L3.75 -35.75L8.35 -35.75" />
</g>
<g id="PathID_40" transform="matrix(0.427487, 0, 0, 0.400508, 279.85, 250)" opacity="1">
</g>
<g id="PathID_41" transform="matrix(0.427487, 0, 0, 0.400508, 287.2, 250)" opacity="1">
<path style="fill:#FFFFFF;fill-opacity:1" d="M27.1 -35.75L27.1 -32L15.85 -32L15.85 0L11.25 0L11.25 -32L0 -32L0 -35.75L27.1 -35.75" />
</g>
<g id="PathID_42" transform="matrix(0.427487, 0, 0, 0.400508, 287.2, 250)" opacity="1">
</g>
<g id="PathID_43" transform="matrix(0.427487, 0, 0, 0.400508, 301, 250)" opacity="1">
<path style="fill:#FFFFFF;fill-opacity:1" d="M8.35 -35.75L8.35 0L3.75 0L3.75 -35.75L8.35 -35.75" />
</g>
<g id="PathID_44" transform="matrix(0.427487, 0, 0, 0.400508, 301, 250)" opacity="1">
</g>
<g id="PathID_45" transform="matrix(0.427487, 0, 0, 0.400508, 308.3, 250)" opacity="1">
<path style="fill:#FFFFFF;fill-opacity:1" d="M20.45 -3.5Q33.25 -3.5 33.25 -17.95Q33.25 -32.25 20.45 -32.25Q7.35 -32.25 7.35 -17.95Q7.35 -3.5 20.45 -3.5M2.5 -17.8Q2.5 -36 20.45 -36Q38.1 -36 38.1 -17.8Q38.1 0.25 20.45 0.25Q2.5 0.25 2.5 -17.8" />
</g>
<g id="PathID_46" transform="matrix(0.427487, 0, 0, 0.400508, 308.3, 250)" opacity="1">
</g>
<g id="PathID_47" transform="matrix(0.427487, 0, 0, 0.400508, 327.85, 250)" opacity="1">
<path style="fill:#FFFFFF;fill-opacity:1" d="M3.75 0L3.75 -35.75L8.35 -35.75L30.25 -7.2L30.25 -35.75L34.6 -35.75L34.6 0L30 0L8.1 -28.55L8.1 0L3.75 0" />
</g>
<g id="PathID_48" transform="matrix(0.427487, 0, 0, 0.400508, 327.85, 250)" opacity="1">
</g>
</g>
<filter id="filter63" x="-0.549524" y="-0.549524" width="2.31209" height="2.3036" >
<feComponentTransfer in="SourceGraphic">
	<feFuncR type="linear" slope="0"/>
	<feFuncG type="linear" slope="0"/>
	<feFuncB type="linear" slope="0"/>
</feComponentTransfer>
<feGaussianBlur stdDeviation="2 2" />
<feOffset result="55" dx="-3.53558" dy="-3.53549"/>
<feComponentTransfer in="SourceGraphic">
	<feFuncR type="linear" slope="0"/>
	<feFuncG type="linear" slope="0"/>
	<feFuncB type="linear" slope="0"/>
</feComponentTransfer>
<feGaussianBlur stdDeviation="2 2" />
<feOffset result="56" dx="3.53558" dy="3.53549"/>
<feComposite  in="55" in2="56" operator="arithmetic" k2="1" k3="-1"/>
<feComponentTransfer result="57">
	<feFuncR type="linear" Ue="0" intercept="1"/>
	<feFuncG type="linear" Ue="0" intercept="1"/>
	<feFuncB type="linear" Ue="0" intercept="1"/>
	<feFuncA type="linear" xh="0" slope="1"/>
</feComponentTransfer>
<feComposite  in="56" in2="55" operator="arithmetic" k2="1" k3="-1"/>
<feComponentTransfer result="58">
	<feFuncR type="linear" Ue="0" intercept="0.6"/>
	<feFuncG type="linear" Ue="0" intercept="0.6"/>
	<feFuncB type="linear" Ue="0" intercept="0.6"/>
	<feFuncA type="linear" xh="0" slope="1"/>
</feComponentTransfer>
<feComposite result="59"  in="57" in2="58" operator="arithmetic" k2="1" k3="1"/>
<feComposite result="60"  in="59" in2="SourceGraphic" operator="atop"/>
<feComponentTransfer in="60">
	<feFuncR type="linear" slope="0"/>
	<feFuncG type="linear" slope="0"/>
	<feFuncB type="linear" slope="0"/>
</feComponentTransfer>
<feGaussianBlur stdDeviation="1 1" />
<feOffset dx="0" dy="0"/>
<feComponentTransfer result="61">
	<feFuncR type="linear" Ue="0" intercept="0.701961"/>
	<feFuncG type="linear" Ue="0" intercept="0.701961"/>
	<feFuncB type="linear" Ue="0" intercept="0.701961"/>
	<feFuncA type="linear" xh="0" slope="1.37891"/>
</feComponentTransfer>
<feComposite result="62"  in="60" in2="61" operator="over"/>
</filter>
<g style="filter:url(#filter63);">
<g id="PathID_49" transform="matrix(3.14278, 0, 0, 2.37097, 194.3, 210.2)" opacity="1">
<path style="fill:#FFFFFF;fill-opacity:1" d="M4.2 0L4.2 -37L27.3 -37L27.3 -32.05L11.65 -32.05L11.65 -21.65L24.85 -21.65L24.85 -17L11.65 -17L11.65 -4.95L28.65 -4.95L28.65 0L4.2 0" />
</g>
<g id="PathID_50" transform="matrix(3.14278, 0, 0, 2.37097, 194.3, 210.2)" opacity="1">
</g>
</g>
<filter id="filter72" x="-0.549524" y="-0.549524" width="2.31209" height="2.3036" >
<feComponentTransfer in="SourceGraphic">
	<feFuncR type="linear" slope="0"/>
	<feFuncG type="linear" slope="0"/>
	<feFuncB type="linear" slope="0"/>
</feComponentTransfer>
<feGaussianBlur stdDeviation="2 2" />
<feOffset result="64" dx="-3.53558" dy="-3.53549"/>
<feComponentTransfer in="SourceGraphic">
	<feFuncR type="linear" slope="0"/>
	<feFuncG type="linear" slope="0"/>
	<feFuncB type="linear" slope="0"/>
</feComponentTransfer>
<feGaussianBlur stdDeviation="2 2" />
<feOffset result="65" dx="3.53558" dy="3.53549"/>
<feComposite  in="64" in2="65" operator="arithmetic" k2="1" k3="-1"/>
<feComponentTransfer result="66">
	<feFuncR type="linear" Ue="0" intercept="1"/>
	<feFuncG type="linear" Ue="0" intercept="1"/>
	<feFuncB type="linear" Ue="0" intercept="1"/>
	<feFuncA type="linear" xh="0" slope="1"/>
</feComponentTransfer>
<feComposite  in="65" in2="64" operator="arithmetic" k2="1" k3="-1"/>
<feComponentTransfer result="67">
	<feFuncR type="linear" Ue="0" intercept="0.6"/>
	<feFuncG type="linear" Ue="0" intercept="0.6"/>
	<feFuncB type="linear" Ue="0" intercept="0.6"/>
	<feFuncA type="linear" xh="0" slope="1"/>
</feComponentTransfer>
<feComposite result="68"  in="66" in2="67" operator="arithmetic" k2="1" k3="1"/>
<feComposite result="69"  in="68" in2="SourceGraphic" operator="atop"/>
<feComponentTransfer in="69">
	<feFuncR type="linear" slope="0"/>
	<feFuncG type="linear" slope="0"/>
	<feFuncB type="linear" slope="0"/>
</feComponentTransfer>
<feGaussianBlur stdDeviation="1 1" />
<feOffset dx="0" dy="0"/>
<feComponentTransfer result="70">
	<feFuncR type="linear" Ue="0" intercept="0.701961"/>
	<feFuncG type="linear" Ue="0" intercept="0.701961"/>
	<feFuncB type="linear" Ue="0" intercept="0.701961"/>
	<feFuncA type="linear" xh="0" slope="1.37891"/>
</feComponentTransfer>
<feComposite result="71"  in="69" in2="70" operator="over"/>
</filter>
<g style="filter:url(#filter72);">
<g id="PathID_51" transform="matrix(3.14278, 0, 0, 2.37097, 259.95, 202)" opacity="1">
<path style="fill:#FFFFFF;fill-opacity:1" d="M0.9 0L11.55 -18.25L1.2 -37L9.65 -37L16.45 -24.85L23.3 -37L29 -37L19.2 -19.75L30 0L21.55 0L14.3 -13.1L6.6 0L0.9 0" />
</g>
<g id="PathID_52" transform="matrix(3.14278, 0, 0, 2.37097, 259.95, 202)" opacity="1">
</g>
</g>
</svg>
